<!DOCTYPE svg PUBLIC "-//W3C//DTD SVG 20010904//EN" "http://www.w3.org/TR/2001/REC-SVG-20010904/DTD/svg10.dtd"><svg version="1.0" xmlns="http://www.w3.org/2000/svg" width="617px" height="730px" viewBox="0 0 6170 7300" preserveAspectRatio="xMidYMid meet"><g id="layer1" fill="#87001d" stroke="none"></g><g id="layer2" fill="#961a3a" stroke="none"><path d="M875 4318 c-41 -61 -91 -186 -101 -249 -8 -51 -25 -74 -75 -99 -19 -10 -54 -34 -77 -52 -22 -18 -59 -46 -81 -62 -34 -25 -143 -130 -220 -214 -78 -83 -205 -295 -239 -397 -19 -57 -30 -109 -56 -272 -6 -39 -14 -75 -18 -79 -5 -4 -8 -80 -8 -169 0 -149 13 -282 40 -410 6 -28 15 -84 20 -125 11 -97 38 -190 92 -320 61 -147 90 -149 128 -7 12 45 28 93 35 107 8 14 20 45 29 70 8 25 24 70 36 100 12 30 26 71 32 90 5 19 16 49 23 65 7 17 27 73 45 125 18 52 36 100 40 105 4 6 12 30 19 55 7 25 16 50 21 55 4 6 10 24 14 40 4 17 13 44 20 60 18 41 49 125 82 220 15 44 30 85 34 90 4 6 10 24 14 40 4 17 14 44 21 60 7 17 18 44 23 60 6 17 27 75 48 130 20 55 45 123 55 150 10 28 30 82 44 120 94 252 99 277 85 431 -6 65 -15 161 -19 212 -13 138 -45 160 -106 70z"/></g><g id="layer3" fill="#96223f" stroke="none"></g><g id="layer4" fill="#ac1b3c" stroke="none"><path d="M1350 4654 c-167 -39 -274 -98 -380 -210 l-52 -55 6 -87 c9 -128 36 -345 45 -362 13 -25 39 -23 57 5 10 15 59 158 111 318 51 160 98 297 105 304 12 11 163 57 237 71 19 4 34 12 35 17 1 15 -100 14 -164 -1z"/><path d="M976 3832 c-3 -5 19 -77 49 -160 30 -82 64 -186 75 -229 12 -43 32 -100 44 -128 13 -27 51 -135 85 -240 34 -104 68 -203 76 -220 7 -16 36 -102 65 -190 28 -88 57 -173 65 -190 7 -16 32 -88 54 -160 23 -71 48 -143 55 -160 8 -16 33 -88 55 -160 23 -71 49 -145 58 -164 8 -19 18 -51 20 -71 5 -32 2 -38 -17 -43 -34 -9 -15 -24 24 -19 28 3 36 9 36 24 0 23 -49 188 -60 203 -4 6 -29 75 -54 155 -26 80 -53 159 -61 175 -7 17 -32 89 -54 160 -23 72 -48 144 -55 160 -8 17 -37 102 -65 190 -29 88 -56 169 -62 180 -15 32 -108 314 -130 395 -11 41 -29 93 -39 115 -21 44 -104 282 -115 330 -10 45 -35 69 -49 47z"/><path d="M238 1779 c-10 -5 -18 -19 -18 -29 0 -18 35 -101 77 -185 52 -103 97 -185 121 -221 15 -23 45 -70 67 -104 22 -35 51 -75 65 -90 14 -15 39 -46 55 -71 54 -79 129 -159 149 -159 28 0 18 43 -18 80 -78 79 -128 137 -143 165 -9 16 -35 52 -59 80 -24 27 -60 82 -80 120 -20 39 -48 86 -63 105 -15 19 -37 60 -50 90 -13 30 -36 79 -53 107 -16 29 -27 57 -23 63 3 5 21 10 40 10 42 0 65 9 65 25 0 7 -7 16 -16 19 -25 9 -97 6 -116 -5z"/></g><g id="layer5" fill="#b51f45" stroke="none"><path d="M1355 4655 c-116 -34 -132 -42 -149 -67 -8 -13 -54 -147 -101 -298 -48 -151 -96 -292 -106 -312 -11 -21 -19 -51 -19 -67 0 -17 -9 -50 -20 -73 -11 -24 -56 -142 -99 -263 -44 -121 -181 -499 -306 -840 -303 -828 -335 -920 -335 -964 0 -50 82 -230 184 -402 44 -74 155 -226 241 -328 38 -46 89 -107 111 -136 23 -29 64 -69 90 -91 27 -21 85 -70 129 -109 44 -39 114 -93 155 -120 41 -28 90 -62 108 -77 38 -33 77 -36 91 -9 16 29 395 1094 424 1191 15 47 69 265 121 485 52 220 127 532 166 692 66 275 70 295 59 340 -7 27 -96 275 -199 553 -294 790 -329 883 -347 902 -23 25 -98 23 -198 -7z"/></g><g id="layer6" fill="#c51a3d" stroke="none"><path d="M2775 4709 c-21 -33 92 -366 206 -607 32 -69 46 -109 40 -115 -6 -6 -85 -15 -176 -20 l-165 -10 -46 39 c-47 41 -138 123 -230 209 -30 28 -83 77 -119 110 -36 33 -92 85 -124 115 -32 30 -83 77 -115 105 -80 71 -73 82 27 44 33 -13 81 -44 121 -80 82 -72 110 -79 201 -49 89 30 107 57 101 154 -8 113 -39 118 -50 9 -10 -93 -13 -100 -48 -112 -66 -23 -105 -13 -170 45 -79 71 -220 122 -357 131 -235 15 -328 15 -334 -1 -3 -8 2 -25 12 -38 10 -13 22 -33 26 -46 9 -29 19 -21 20 16 l0 27 115 -3 c72 -2 122 -8 135 -17 24 -15 229 -198 370 -330 55 -51 120 -110 145 -130 94 -78 250 -231 250 -244 0 -8 -12 -27 -27 -43 -14 -15 -42 -50 -62 -77 -57 -79 -263 -348 -336 -438 -50 -63 -72 -83 -91 -83 -26 0 -33 -27 -12 -48 30 -30 42 -19 172 158 12 16 64 84 117 152 53 68 109 141 125 164 30 43 94 126 139 182 25 30 31 32 92 32 36 0 131 5 211 12 122 9 147 9 150 -2 8 -23 80 -95 87 -88 8 8 -45 98 -57 98 -5 0 -8 8 -8 18 0 9 -13 36 -29 59 -34 50 -112 225 -151 338 -16 44 -40 114 -55 155 -15 41 -38 108 -52 148 -24 70 -35 83 -48 61z"/></g><g id="layer7" fill="#b5264a" stroke="none"><path d="M1503 4683 c-20 -7 -15 -31 7 -38 11 -3 23 -20 29 -38 8 -30 89 -247 215 -577 31 -80 56 -148 56 -152 0 -4 21 -60 46 -125 26 -65 67 -174 91 -243 25 -69 55 -151 67 -182 36 -98 52 -105 -294 119 -69 44 -163 104 -210 133 -84 52 -186 118 -381 246 -116 77 -112 58 -56 219 19 55 51 152 72 215 20 63 49 156 66 205 33 100 37 145 14 145 -21 0 -41 -36 -65 -115 -19 -64 -43 -141 -117 -370 -14 -44 -31 -89 -38 -100 -7 -11 -14 -33 -17 -50 -11 -58 -58 -202 -133 -405 -42 -113 -94 -257 -116 -320 -55 -157 -71 -201 -108 -300 -18 -47 -62 -166 -98 -265 -36 -99 -81 -223 -100 -275 -19 -52 -45 -124 -58 -160 -13 -36 -42 -117 -65 -180 -76 -210 -100 -284 -100 -306 0 -29 49 -138 94 -209 27 -41 44 -57 66 -61 22 -5 53 -34 122 -117 97 -115 499 -587 549 -645 16 -19 29 -43 29 -53 0 -31 25 -72 59 -96 16 -13 33 -23 37 -23 4 0 24 -15 44 -34 28 -25 47 -34 74 -34 41 0 48 7 65 68 7 25 17 50 21 55 4 6 13 30 20 55 6 25 18 59 25 75 8 17 30 80 51 140 20 61 40 115 44 120 4 6 15 35 24 66 9 31 23 69 31 85 8 16 15 36 15 44 0 8 9 32 20 52 11 21 25 59 30 84 6 26 22 70 35 99 14 28 25 58 25 66 0 25 39 140 55 162 19 27 19 76 0 104 -8 12 -155 430 -325 930 -171 499 -325 949 -343 1000 -17 50 -29 94 -25 98 8 8 51 -14 139 -73 39 -26 94 -61 122 -78 29 -16 124 -78 212 -135 88 -58 185 -120 215 -137 30 -18 66 -41 80 -51 14 -10 66 -42 115 -71 50 -30 101 -62 114 -72 65 -49 73 -1 21 125 -22 54 -40 103 -40 108 0 4 -21 61 -46 126 -26 65 -66 172 -89 238 -24 66 -68 185 -98 265 -30 80 -90 240 -132 355 -87 236 -107 280 -130 289 -9 3 -17 6 -18 5 -1 0 -8 -3 -14 -6z m-357 -1364 c79 -233 233 -681 341 -996 107 -315 193 -579 190 -588 -6 -13 -23 -14 -124 -10 -424 19 -555 25 -693 30 -85 4 -224 10 -309 15 -85 5 -157 9 -160 8 -3 0 -26 0 -51 1 -75 2 -78 7 -47 103 14 46 38 115 52 153 15 39 34 93 44 120 52 143 106 289 171 465 40 107 81 220 91 250 23 70 51 145 127 345 33 88 90 243 127 344 75 208 74 206 87 193 5 -5 74 -200 154 -433z m-251 -1625 c187 -8 420 -17 519 -19 185 -4 253 -10 273 -27 12 -10 -7 -83 -33 -123 -7 -11 -18 -42 -24 -69 -6 -27 -22 -72 -35 -101 -14 -28 -25 -60 -25 -71 0 -10 -7 -32 -15 -47 -8 -16 -20 -47 -26 -70 -6 -23 -17 -55 -24 -72 -8 -16 -30 -79 -51 -140 -20 -60 -40 -114 -44 -120 -4 -5 -15 -37 -25 -70 -9 -33 -20 -64 -25 -70 -4 -5 -15 -37 -25 -70 -17 -59 -30 -85 -45 -85 -3 0 -38 37 -76 82 -38 45 -202 237 -364 427 -163 190 -307 360 -320 377 -14 17 -72 87 -128 154 -80 94 -101 125 -90 132 7 5 63 7 128 4 63 -4 268 -13 455 -22z"/></g><g id="layer8" fill="#cb1f47" stroke="none"><path d="M2157 7286 c-26 -7 -55 -20 -65 -29 -10 -10 -23 -17 -29 -17 -31 0 -83 -94 -119 -214 -44 -146 -31 -372 36 -621 10 -38 26 -99 34 -135 9 -36 25 -99 36 -140 12 -41 43 -163 71 -270 28 -107 64 -247 80 -310 44 -169 69 -270 69 -281 0 -5 -49 -9 -113 -9 -118 0 -137 -6 -137 -44 0 -41 113 -371 133 -388 16 -15 39 -18 128 -18 l109 0 11 -27 c6 -16 17 -64 25 -108 7 -44 16 -91 19 -105 4 -14 1 -32 -7 -41 -13 -16 -102 -49 -132 -49 -9 0 -43 24 -75 54 -83 76 -164 113 -286 131 -22 3 -65 10 -95 15 -30 5 -107 8 -171 7 -116 -2 -149 -11 -149 -42 0 -7 25 -79 56 -161 78 -206 289 -775 385 -1034 76 -206 86 -254 44 -220 -8 7 -19 9 -23 5 -4 -4 -1 -10 7 -13 7 -2 26 -16 42 -31 l29 -26 -50 -205 c-47 -190 -73 -294 -151 -620 -64 -268 -78 -328 -94 -400 -20 -96 -34 -140 -45 -140 -5 0 -18 30 -31 68 -36 107 -49 136 -60 125 -10 -10 33 -161 73 -256 16 -37 18 -53 11 -70 -24 -51 -34 -81 -47 -147 -8 -38 -24 -82 -34 -97 -11 -15 -23 -48 -26 -73 -4 -24 -15 -58 -25 -75 -10 -16 -21 -47 -24 -69 -4 -21 -14 -47 -23 -57 -9 -10 -21 -41 -25 -69 -4 -28 -17 -62 -28 -77 -12 -14 -21 -34 -21 -43 0 -10 -11 -43 -25 -74 -14 -31 -25 -63 -25 -72 0 -8 -8 -31 -19 -52 -10 -20 -21 -56 -24 -79 -3 -23 -14 -54 -26 -69 -12 -15 -21 -38 -21 -51 0 -13 -7 -38 -16 -55 -9 -17 -12 -34 -7 -39 9 -9 289 -38 663 -69 135 -11 324 -27 420 -35 96 -8 254 -22 350 -30 96 -8 186 -17 198 -20 35 -8 62 4 62 26 0 12 -36 56 -85 107 -47 48 -115 119 -150 157 -118 128 -203 219 -294 315 -50 52 -120 127 -156 165 -36 39 -103 111 -150 160 -46 50 -117 125 -157 168 -40 42 -101 105 -134 140 -59 59 -103 122 -93 131 9 8 1234 452 1317 477 23 7 54 23 68 36 35 33 63 -74 -250 958 -119 391 -216 718 -216 726 0 18 42 24 263 35 91 5 133 11 143 21 8 8 13 18 11 21 -2 4 -35 72 -74 152 -39 80 -80 172 -92 205 -11 33 -34 98 -51 145 -34 93 -100 317 -100 337 0 10 44 13 201 13 119 0 208 4 220 10 25 14 24 30 -12 168 -17 64 -38 144 -45 177 -19 78 -39 95 -115 95 -32 0 -59 3 -59 8 0 4 14 42 30 84 17 43 44 133 61 200 27 108 32 146 36 303 6 202 -7 317 -59 535 -55 232 -139 437 -249 606 -49 76 -208 244 -230 244 -12 0 -71 25 -104 43 -30 17 -261 19 -318 3z m223 -441 c116 -73 229 -240 294 -435 63 -187 70 -234 70 -455 0 -172 -4 -213 -22 -290 -22 -88 -75 -215 -91 -215 -8 0 -43 125 -136 485 -29 116 -62 242 -73 280 -11 39 -29 111 -42 160 -12 50 -35 137 -51 194 -38 137 -53 224 -45 266 6 29 11 35 32 35 13 0 42 -11 64 -25z m-571 -5285 c20 -22 69 -75 108 -118 40 -42 102 -108 138 -147 35 -38 105 -113 155 -165 49 -52 119 -126 155 -165 74 -80 191 -206 297 -318 40 -42 112 -117 161 -165 82 -82 103 -112 75 -112 -6 0 -50 4 -97 10 -47 5 -176 17 -286 25 -110 9 -267 22 -350 30 -82 8 -238 22 -345 30 -234 19 -442 43 -453 54 -9 9 11 97 29 126 7 11 26 63 44 115 17 52 38 109 45 125 7 17 19 53 26 80 7 28 18 59 25 70 7 11 18 43 25 70 7 28 18 59 24 70 7 11 30 72 50 135 21 63 44 129 51 145 13 32 38 99 48 128 9 28 36 20 75 -23z"/><path d="M3493 6135 c-137 -30 -218 -126 -243 -291 -13 -82 -11 -91 105 -539 42 -159 85 -329 96 -377 29 -122 29 -122 203 -126 146 -3 191 4 203 34 8 21 5 35 -106 467 -50 196 -91 364 -91 372 0 12 20 15 118 15 137 0 168 10 166 55 -1 35 -79 337 -95 366 -5 11 -21 24 -35 29 -37 14 -249 11 -321 -5z"/><path d="M4010 6138 c-33 -18 -35 -43 -11 -136 51 -196 125 -485 205 -794 47 -186 91 -349 98 -363 17 -37 65 -47 215 -43 120 3 133 5 156 26 23 21 25 22 66 7 199 -70 359 19 406 227 29 130 16 266 -50 521 -14 54 -25 99 -25 101 0 2 47 6 105 8 155 5 151 -6 86 230 -28 106 -58 200 -67 208 -19 19 -200 26 -276 11 -80 -17 -141 -60 -187 -131 -70 -108 -79 -198 -38 -370 52 -220 69 -299 65 -310 -5 -16 -77 39 -124 96 -58 69 -129 196 -160 283 -14 41 -45 149 -69 239 -24 91 -51 172 -60 181 -21 22 -297 29 -335 9z"/><path d="M3747 4540 c-125 -24 -220 -179 -203 -329 18 -154 119 -261 246 -261 127 0 217 94 238 248 28 201 -114 374 -281 342z"/></g><g id="layer9" fill="#d7274f" stroke="none"><path d="M2855 3958 c-177 -9 -213 -18 -240 -56 -11 -16 -54 -73 -95 -127 -97 -127 -168 -219 -313 -410 -66 -85 -123 -158 -128 -161 -5 -3 -9 -16 -9 -29 0 -14 -5 -44 -10 -67 -43 -174 -120 -500 -126 -533 -3 -22 -11 -48 -15 -57 -5 -9 -20 -70 -33 -135 -13 -65 -29 -131 -36 -148 -6 -16 -15 -48 -20 -70 -67 -336 -83 -387 -316 -1035 -119 -333 -217 -617 -217 -632 0 -39 14 -52 124 -114 169 -95 384 -184 584 -244 193 -57 257 -71 375 -80 163 -12 319 -30 360 -41 45 -12 101 -11 120 1 8 5 11 10 7 10 -5 0 -2 7 6 15 8 8 52 73 97 145 l82 131 9 117 c30 393 45 575 94 1147 8 94 22 269 31 390 17 219 17 221 85 465 37 135 124 450 193 700 185 672 166 614 199 618 34 4 38 39 5 46 -70 14 -230 15 -312 2 -54 -9 -96 -12 -106 -6 -16 9 -87 85 -126 137 -25 32 -40 33 -269 21z m-177 -199 c130 -415 422 -1394 420 -1407 -3 -17 -122 80 -298 244 -47 43 -148 133 -225 199 -168 145 -425 385 -425 397 0 7 49 73 307 411 35 45 89 117 120 160 32 42 62 76 68 74 5 -2 20 -37 33 -78z m-440 -742 c54 -51 160 -146 236 -212 77 -66 189 -165 249 -220 156 -144 243 -220 320 -282 41 -33 67 -61 65 -70 -2 -11 -42 -29 -113 -54 -60 -20 -317 -112 -570 -204 -622 -225 -619 -224 -627 -217 -7 7 19 142 50 257 11 39 27 106 36 150 27 127 32 148 107 445 15 63 49 202 75 308 34 141 51 192 61 192 8 0 58 -42 111 -93z"/></g><g id="layer10" fill="#e63655" stroke="none"><path d="M3614 3801 c-47 -12 -54 -19 -48 -49 4 -17 -8 -77 -30 -153 -68 -238 -339 -1225 -361 -1314 -15 -60 -28 -164 -39 -315 -9 -124 -23 -301 -31 -395 -35 -406 -55 -643 -70 -835 -9 -113 -20 -248 -24 -300 -10 -102 -5 -120 33 -120 12 0 139 86 291 196 149 108 296 214 329 237 123 88 111 62 124 259 6 95 18 265 26 378 33 461 76 1098 76 1127 0 30 40 75 114 125 79 54 421 311 499 374 32 26 70 56 85 65 61 39 87 67 75 79 -9 10 -25 4 -71 -24 -33 -20 -65 -36 -71 -36 -6 0 -11 -6 -11 -13 0 -7 -18 -26 -39 -43 -98 -73 -301 -227 -346 -262 -27 -22 -63 -47 -80 -58 -16 -10 -53 -38 -81 -61 -45 -37 -74 -53 -74 -39 0 3 -11 80 -25 173 -13 92 -31 222 -40 288 -14 105 -33 240 -66 475 -23 160 -23 172 -4 186 28 20 12 39 -45 52 -28 7 -55 12 -58 11 -4 -1 -21 -4 -38 -8z"/></g><g id="layer11" fill="#de465e" stroke="none"><path d="M2986 323 c-3 -3 -6 -14 -6 -23 0 -9 -25 -54 -55 -99 -75 -112 -104 -166 -96 -178 9 -15 127 -27 135 -14 4 6 16 11 27 11 10 0 20 3 20 8 7 40 10 72 15 168 6 105 5 113 -13 123 -11 5 -23 7 -27 4z"/></g><g id="layer12" fill="#db4761" stroke="none"></g><g id="layer13" fill="#ea495a" stroke="none"><path d="M3690 3770 c-9 -17 -3 -81 29 -308 22 -158 59 -418 81 -579 l41 -292 -11 -183 c-6 -101 -17 -272 -25 -382 -8 -109 -20 -271 -25 -360 -18 -281 -30 -458 -41 -571 -5 -60 -10 -142 -11 -182 l0 -72 -39 -26 c-41 -26 -46 -55 -7 -34 29 16 38 -2 38 -82 0 -67 17 -108 38 -95 8 5 12 47 12 126 0 114 1 119 24 137 28 21 55 53 634 778 233 291 494 617 580 724 86 106 164 204 172 217 25 39 0 52 -146 75 -71 11 -134 21 -139 23 -6 2 -16 32 -23 67 -33 162 -100 317 -200 466 -79 118 -131 177 -231 263 -211 182 -448 289 -678 307 -55 4 -63 2 -73 -17z"/><path d="M3734 485 c-3 -13 -3 -118 0 -234 l6 -209 -128 -8 c-163 -11 -577 -10 -619 0 -27 7 -33 5 -33 -8 0 -19 -28 -18 293 -17 295 0 505 6 527 15 13 5 14 21 8 99 -4 50 -8 151 -8 223 0 73 -3 139 -6 148 -9 24 -33 19 -40 -9z"/></g><g id="layer14" fill="#f05e63" stroke="none"><path d="M4607 3121 c-19 -17 -39 -31 -43 -31 -5 -1 -36 -23 -69 -50 -63 -53 -133 -106 -253 -192 -41 -29 -99 -74 -130 -100 -31 -27 -60 -48 -65 -48 -19 0 -157 -116 -157 -132 0 -25 11 -28 69 -21 61 7 94 27 71 43 -8 5 -19 12 -25 14 -11 5 88 98 125 118 14 7 69 47 123 88 163 126 211 162 317 239 55 41 99 79 97 85 -7 20 -26 16 -60 -13z"/><path d="M5149 2621 c-14 -9 -152 -178 -384 -471 -28 -36 -177 -222 -331 -414 -153 -192 -301 -377 -329 -412 -27 -35 -113 -140 -190 -234 -77 -94 -150 -184 -161 -200 -12 -17 -73 -66 -135 -111 -454 -325 -610 -443 -614 -463 -16 -75 -35 -208 -40 -276 -1 -14 3 -28 9 -32 16 -11 76 -10 76 2 0 6 23 9 53 9 48 -2 50 -2 17 -9 -31 -7 -29 -8 23 -9 32 0 57 3 57 9 0 6 18 10 40 10 22 0 40 -4 40 -10 0 -14 97 -13 102 1 3 9 9 9 25 1 21 -12 60 -11 253 7 126 11 141 16 135 45 -2 11 -7 162 -10 335 -3 173 -8 331 -11 350 -10 71 -29 72 477 -28 255 -51 550 -110 654 -131 284 -59 454 -90 491 -90 54 0 56 13 39 252 -14 200 -22 324 -60 958 -9 140 -22 348 -30 461 -8 113 -15 243 -15 287 0 81 0 82 25 82 14 0 51 -11 83 -24 31 -12 80 -29 107 -36 28 -7 62 -22 77 -32 14 -10 35 -18 46 -18 11 0 25 -7 32 -15 6 -8 21 -17 32 -21 45 -14 151 -96 237 -183 58 -59 131 -180 131 -217 0 -7 4 -14 10 -16 18 -6 40 -124 41 -228 l2 -105 7 105 c4 58 4 115 -1 128 -5 13 -9 36 -9 52 0 45 -45 176 -71 209 -13 16 -37 48 -54 72 -28 38 -139 136 -175 153 -8 4 -33 18 -55 31 -22 13 -59 34 -83 46 -23 12 -45 25 -48 30 -3 5 -13 9 -23 9 -10 0 -42 13 -72 29 -30 16 -91 39 -136 50 -45 11 -101 30 -124 41 -47 24 -136 36 -160 21z"/></g><g id="layer15" fill="#f0665d" stroke="none"></g><g id="layer16" fill="#ef706d" stroke="none"><path d="M5257 2589 c7 -9 16 -95 22 -229 6 -118 13 -226 16 -240 2 -14 9 -110 15 -215 6 -104 17 -293 25 -420 8 -126 19 -304 25 -395 5 -91 15 -247 21 -348 7 -100 9 -185 6 -188 -6 -6 -120 14 -472 86 -561 114 -1063 213 -1101 218 -34 3 -46 -1 -64 -20 l-22 -23 7 -285 c3 -157 8 -333 10 -392 l4 -107 -27 -5 c-15 -2 18 -2 73 0 55 3 123 10 150 15 28 6 113 14 190 19 216 14 549 88 775 173 36 13 99 37 140 52 118 45 321 153 365 195 22 21 56 46 75 55 81 41 223 165 207 181 -8 9 -48 -15 -105 -64 -103 -88 -102 -85 293 543 224 357 216 344 239 395 14 32 16 33 16 9 0 -39 -22 -139 -31 -139 -4 0 -11 -21 -15 -47 -7 -52 -54 -175 -108 -282 -38 -75 -150 -246 -169 -258 -24 -15 -77 -97 -69 -105 14 -14 35 1 90 67 114 137 215 309 252 429 43 138 82 411 79 546 -2 77 -44 252 -75 312 -64 123 -233 266 -416 352 -128 60 -301 117 -373 124 -51 4 -58 3 -48 -9z"/></g><g id="layer17" fill="#f1827b" stroke="none"><path d="M6162 1720 c-1 -14 -19 -44 -40 -67 -20 -23 -107 -154 -192 -290 -452 -724 -534 -850 -568 -880 -20 -18 -42 -32 -48 -33 -6 0 -62 -25 -125 -56 -124 -61 -189 -87 -349 -138 -232 -75 -313 -96 -367 -96 -14 0 -41 13 -60 30 -39 35 -63 31 -39 -6 9 -13 16 -29 16 -37 0 -14 -91 -32 -318 -64 -62 -9 -108 -19 -102 -23 6 -4 -66 -15 -162 -24 -95 -9 -191 -18 -213 -20 -22 -3 19 -2 90 0 123 4 218 13 383 34 40 6 99 10 131 10 97 0 466 85 651 149 203 70 429 171 475 210 11 10 45 28 75 40 147 61 426 318 555 511 71 106 155 274 155 311 0 13 9 57 20 97 27 100 42 224 38 302 -3 36 -5 54 -6 40z"/></g></svg>